<svg width="397" height="149" viewBox="0 0 397 149" fill="none" xmlns="http://www.w3.org/2000/svg">
<g filter="url(#filter0_d_9_2)">
<mask id="path-1-outside-1_9_2" maskUnits="userSpaceOnUse" x="11" y="39" width="362" height="51" fill="black">
<rect fill="white" x="11" y="39" width="362" height="51"/>
<path d="M35.32 69.36L33.28 65.16C36.1333 63.2667 38.7067 62.32 41 62.32C42.92 62.32 43.88 63.4 43.88 65.56C43.88 66.1733 43.5067 68.0533 42.76 71.2C42.04 74.32 41.68 76.7067 41.68 78.36C41.68 80.0133 42.04 81.24 42.76 82.04C41.2667 83.1333 39.7067 83.68 38.08 83.68C36.4533 83.68 35.2933 83.1467 34.6 82.08C33.9333 81.0133 33.6 79.4533 33.6 77.4C32.16 77.8267 30.6667 78.04 29.12 78.04C25.4933 78.04 22.56 76.92 20.32 74.68C18.1067 72.44 17 69.1333 17 64.76C17 62.8933 17.4 61 18.2 59.08C19 57.1333 20.1333 55.3333 21.6 53.68C23.0667 52.0267 24.9733 50.68 27.32 49.64C29.6933 48.5733 32.1333 48.04 34.64 48.04C37.1733 48.04 39.1467 48.5067 40.56 49.44C42 50.3733 42.72 51.6667 42.72 53.32C42.72 54.9733 42.1733 56.2667 41.08 57.2C40.0133 58.1067 38.7867 58.56 37.4 58.56C36.0133 58.56 34.76 58.2667 33.64 57.68C32.5467 57.0667 31.6667 56.2 31 55.08C29.56 55.7733 28.32 57.1333 27.28 59.16C26.24 61.1867 25.72 63.3067 25.72 65.52C25.72 67.7333 26.1467 69.4 27 70.52C27.88 71.6133 28.9733 72.16 30.28 72.16C32.1733 72.16 33.8533 71.2267 35.32 69.36Z"/>
<path d="M70.0672 53.92L69.7472 63.44C69.7472 66.72 70.0139 69.48 70.5472 71.72C71.1072 73.96 72.1339 75.5067 73.6272 76.36C71.7872 77.5067 69.9205 78.08 68.0272 78.08C64.6939 78.08 62.6405 75.3867 61.8672 70H53.7072C53.2005 71.7333 52.9472 73.0667 52.9472 74C52.9472 74.9067 53.0539 75.64 53.2672 76.2C51.2939 77.4533 49.5339 78.08 47.9872 78.08C45.6139 78.08 44.4272 76.64 44.4272 73.76C44.4272 72.32 44.8672 70.5067 45.7472 68.32C46.6539 66.1333 47.8405 63.6267 49.3072 60.8C50.8005 57.9733 51.7472 56.1067 52.1472 55.2C51.8539 53.76 51.5205 52.3467 51.1472 50.96C52.5339 50 53.8672 49.28 55.1472 48.8C56.4539 48.2933 57.8539 48.04 59.3472 48.04C60.8672 48.04 61.9205 48.3733 62.5072 49.04C64.0272 48.3733 65.2805 48.04 66.2672 48.04C67.2539 48.04 67.9872 48.2 68.4672 48.52C68.9472 48.84 69.2939 49.3067 69.5072 49.92C69.8805 50.9867 70.0672 52.32 70.0672 53.92ZM62.0272 54.84H60.7472C58.3472 59.48 56.5605 63.1333 55.3872 65.8H61.5872C61.5872 62.8933 61.7339 59.24 62.0272 54.84Z"/>
<path d="M107.048 78.08C105.314 78.08 104.074 77.5867 103.328 76.6C102.581 75.5867 102.208 74.1067 102.208 72.16C102.208 70.2133 102.834 65.7333 104.088 58.72H103.448C101.821 60.8533 100.474 63.4 99.4078 66.36C98.3411 69.32 97.6878 71.9867 97.4478 74.36C96.1411 75.5867 94.6345 76.2 92.9278 76.2C92.2345 76.2 91.6211 75.96 91.0878 75.48C90.5811 74.9733 90.0745 74.1067 89.5678 72.88C88.5811 70.4 87.8745 65.68 87.4478 58.72H86.8078C85.5011 64.4533 84.8478 68.4933 84.8478 70.84C84.8478 73.1867 85.2478 75 86.0478 76.28C84.4478 77.48 82.7811 78.08 81.0478 78.08C79.3145 78.08 78.0745 77.5867 77.3278 76.6C76.5811 75.5867 76.2078 74.0933 76.2078 72.12C76.2078 70.12 77.0478 64.48 78.7278 55.2L76.6078 50.92C79.6211 48.9733 82.3678 48 84.8478 48C85.9411 48 86.8611 48.12 87.6078 48.36C88.3811 48.5733 89.1145 49 89.8078 49.64C90.5278 50.28 91.1145 51.1733 91.5678 52.32C92.6078 54.9067 93.3545 58.68 93.8078 63.64H94.2878C95.6745 59.56 97.5945 56.0533 100.048 53.12C101.381 51.5467 102.968 50.3067 104.808 49.4C106.674 48.4933 108.688 48.04 110.848 48.04C112.901 48.04 113.928 49.28 113.928 51.76C113.928 52.5867 113.408 55.6667 112.368 61C111.354 66.3067 110.848 69.4667 110.848 70.48C110.848 73.0667 111.248 75 112.048 76.28C110.448 77.48 108.781 78.08 107.048 78.08Z"/>
<path d="M122.693 78.08C120.96 78.08 119.72 77.5867 118.973 76.6C118.226 75.5867 117.853 74.0933 117.853 72.12C117.853 70.12 118.693 64.48 120.373 55.2L118.253 50.92C121.266 48.9733 124.013 48 126.493 48C128.546 48 129.573 49.2533 129.573 51.76C129.573 52.5867 129.053 55.6667 128.013 61C127 66.3067 126.493 69.4667 126.493 70.48C126.493 73.0667 126.893 75 127.693 76.28C126.093 77.48 124.426 78.08 122.693 78.08Z"/>
<path d="M153.881 70.76L154.841 70.12C153.108 66.7867 152.241 63.1333 152.241 59.16C152.241 56.0667 153.001 53.44 154.521 51.28C156.068 49.12 158.241 48.04 161.041 48.04C162.508 48.04 163.748 48.2933 164.761 48.8C164.494 50.2933 164.014 52.8933 163.321 56.6C161.828 64.5733 161.081 69.1467 161.081 70.32C161.081 72.8533 161.508 74.7467 162.361 76C161.188 76.7733 160.108 77.3067 159.121 77.6C158.134 77.8933 156.854 78.04 155.281 78.04C153.734 78.04 152.321 77.7067 151.041 77.04C149.788 76.3733 148.748 75.4933 147.921 74.4C147.121 73.28 146.441 71.9067 145.881 70.28C144.894 67.4267 144.294 63.8 144.081 59.4H143.441C142.214 64.9467 141.601 68.8267 141.601 71.04C141.601 73.2533 142.001 75 142.801 76.28C141.201 77.48 139.534 78.08 137.801 78.08C136.068 78.08 134.828 77.5867 134.081 76.6C133.334 75.5867 132.961 74.0933 132.961 72.12C132.961 70.12 133.801 64.48 135.481 55.2L133.361 50.92C136.348 49 139.014 48.04 141.361 48.04C143.708 48.04 145.481 48.4533 146.681 49.28C147.881 50.08 148.721 51.2667 149.201 52.84C149.681 54.4133 150.028 56.08 150.241 57.84C150.481 59.5733 150.881 61.6667 151.441 64.12C152.028 66.5733 152.841 68.7867 153.881 70.76Z"/>
<path d="M185.086 69.36L183.046 65.16C185.899 63.2667 188.472 62.32 190.766 62.32C192.686 62.32 193.646 63.4 193.646 65.56C193.646 66.1733 193.272 68.0533 192.526 71.2C191.806 74.32 191.446 76.7067 191.446 78.36C191.446 80.0133 191.806 81.24 192.526 82.04C191.032 83.1333 189.472 83.68 187.846 83.68C186.219 83.68 185.059 83.1467 184.366 82.08C183.699 81.0133 183.366 79.4533 183.366 77.4C181.926 77.8267 180.432 78.04 178.886 78.04C175.259 78.04 172.326 76.92 170.086 74.68C167.872 72.44 166.766 69.1333 166.766 64.76C166.766 62.8933 167.166 61 167.966 59.08C168.766 57.1333 169.899 55.3333 171.366 53.68C172.832 52.0267 174.739 50.68 177.086 49.64C179.459 48.5733 181.899 48.04 184.406 48.04C186.939 48.04 188.912 48.5067 190.326 49.44C191.766 50.3733 192.486 51.6667 192.486 53.32C192.486 54.9733 191.939 56.2667 190.846 57.2C189.779 58.1067 188.552 58.56 187.166 58.56C185.779 58.56 184.526 58.2667 183.406 57.68C182.312 57.0667 181.432 56.2 180.766 55.08C179.326 55.7733 178.086 57.1333 177.046 59.16C176.006 61.1867 175.486 63.3067 175.486 65.52C175.486 67.7333 175.912 69.4 176.766 70.52C177.646 71.6133 178.739 72.16 180.046 72.16C181.939 72.16 183.619 71.2267 185.086 69.36Z"/>
<path d="M218.505 57.48C214.745 57.48 211.998 57.0667 210.265 56.24C208.558 55.4133 207.705 53.8667 207.705 51.6C207.705 50.8 207.838 49.6667 208.105 48.2C209.945 48.9733 212.132 49.6 214.665 50.08C217.198 50.5333 219.185 50.76 220.625 50.76C221.638 48.9733 223.038 48.08 224.825 48.08C225.998 48.08 226.905 48.4533 227.545 49.2C228.212 49.92 228.545 50.8533 228.545 52C228.545 53.12 228.105 54.1733 227.225 55.16L225.825 66.64C225.585 68.6933 225.052 70.5333 224.225 72.16C223.425 73.7867 222.465 75.0667 221.345 76C219.078 77.8933 216.745 78.84 214.345 78.84C211.945 78.84 210.025 78.3067 208.585 77.24C207.145 76.2 206.425 74.9333 206.425 73.44C206.425 71.92 206.865 70.7333 207.745 69.88C208.625 69 209.652 68.56 210.825 68.56C212.025 68.56 213.132 68.9733 214.145 69.8C215.158 70.6267 215.932 71.8667 216.465 73.52L217.465 72.72C216.745 70.72 216.385 69.12 216.385 67.92C216.385 67.2533 216.638 65.72 217.145 63.32C217.652 60.92 218.105 58.9733 218.505 57.48Z"/>
<path d="M258.334 76.28C256.734 77.48 255.161 78.08 253.614 78.08C252.068 78.08 250.841 77.68 249.934 76.88C249.028 76.08 248.574 74.88 248.574 73.28C248.574 72.8267 248.588 72.48 248.614 72.24L248.214 72.12C245.574 76.0667 242.028 78.04 237.574 78.04C233.281 78.04 231.134 75.7733 231.134 71.24C231.134 69.72 231.348 67.7067 231.774 65.2C232.201 62.6667 232.561 60.5333 232.854 58.8C233.174 57.04 233.388 55.84 233.494 55.2L231.374 50.92C233.054 49.96 234.508 49.24 235.734 48.76C236.988 48.28 238.241 48.04 239.494 48.04C240.748 48.04 241.588 48.3733 242.014 49.04C242.468 49.68 242.694 50.4533 242.694 51.36C242.694 52.2667 242.241 55.1733 241.334 60.08C240.454 64.9867 240.014 67.8533 240.014 68.68C240.014 70.7867 240.734 71.84 242.174 71.84C243.241 71.84 244.454 71.16 245.814 69.8C247.174 68.44 248.281 66.5733 249.134 64.2C248.574 62.5733 248.294 60.8933 248.294 59.16C248.294 56.0667 249.054 53.44 250.574 51.28C252.121 49.12 254.294 48.04 257.094 48.04C258.641 48.04 259.881 48.2933 260.814 48.8C260.574 50.24 260.108 52.8533 259.414 56.64C257.894 64.6667 257.134 69.28 257.134 70.48C257.134 73.0667 257.534 75 258.334 76.28Z"/>
<path d="M284.74 70.76L285.7 70.12C283.967 66.7867 283.1 63.1333 283.1 59.16C283.1 56.0667 283.86 53.44 285.38 51.28C286.927 49.12 289.1 48.04 291.9 48.04C293.367 48.04 294.607 48.2933 295.62 48.8C295.354 50.2933 294.874 52.8933 294.18 56.6C292.687 64.5733 291.94 69.1467 291.94 70.32C291.94 72.8533 292.367 74.7467 293.22 76C292.047 76.7733 290.967 77.3067 289.98 77.6C288.994 77.8933 287.714 78.04 286.14 78.04C284.594 78.04 283.18 77.7067 281.9 77.04C280.647 76.3733 279.607 75.4933 278.78 74.4C277.98 73.28 277.3 71.9067 276.74 70.28C275.754 67.4267 275.154 63.8 274.94 59.4H274.3C273.074 64.9467 272.46 68.8267 272.46 71.04C272.46 73.2533 272.86 75 273.66 76.28C272.06 77.48 270.394 78.08 268.66 78.08C266.927 78.08 265.687 77.5867 264.94 76.6C264.194 75.5867 263.82 74.0933 263.82 72.12C263.82 70.12 264.66 64.48 266.34 55.2L264.22 50.92C267.207 49 269.874 48.04 272.22 48.04C274.567 48.04 276.34 48.4533 277.54 49.28C278.74 50.08 279.58 51.2667 280.06 52.84C280.54 54.4133 280.887 56.08 281.1 57.84C281.34 59.5733 281.74 61.6667 282.3 64.12C282.887 66.5733 283.7 68.7867 284.74 70.76Z"/>
<path d="M303.665 78.08C301.932 78.08 300.692 77.5867 299.945 76.6C299.198 75.5867 298.825 74.0933 298.825 72.12C298.825 70.12 299.665 64.48 301.345 55.2L299.225 50.92C302.238 48.9733 304.985 48 307.465 48C309.518 48 310.545 49.2533 310.545 51.76C310.545 52.5067 309.985 55.7867 308.865 61.6L310.745 60.04C314.638 56.7867 316.585 54.0133 316.585 51.72C316.585 51.0267 316.478 50.4 316.265 49.84C318.238 48.64 320.105 48.04 321.865 48.04C324.478 48.04 325.785 49.3733 325.785 52.04C325.785 55.0267 323.132 58.0533 317.825 61.12C320.305 69.0667 322.985 73.9733 325.865 75.84C325.278 76.4267 324.398 76.9333 323.225 77.36C322.078 77.8133 321.052 78.04 320.145 78.04C318.332 78.04 316.878 77.5733 315.785 76.64C314.692 75.7067 313.705 73.9867 312.825 71.48L310.505 64.96L308.025 66.28C307.652 68.4667 307.465 69.8667 307.465 70.48C307.465 73.0667 307.865 75 308.665 76.28C307.065 77.48 305.398 78.08 303.665 78.08Z"/>
<path d="M332.654 78.08C330.921 78.08 329.681 77.5867 328.934 76.6C328.187 75.5867 327.814 74.0933 327.814 72.12C327.814 70.12 328.654 64.48 330.334 55.2L328.214 50.92C331.227 48.9733 333.974 48 336.454 48C338.507 48 339.534 49.2533 339.534 51.76C339.534 52.5867 339.014 55.6667 337.974 61C336.961 66.3067 336.454 69.4667 336.454 70.48C336.454 73.0667 336.854 75 337.654 76.28C336.054 77.48 334.387 78.08 332.654 78.08Z"/>
<path d="M347.722 78.08C346.149 78.08 344.989 77.5867 344.242 76.6C343.495 75.5867 343.122 74.0933 343.122 72.12C343.122 70.12 343.962 64.48 345.642 55.2L343.522 50.92C346.535 48.9733 349.282 48 351.762 48C353.335 48 354.309 48.7467 354.682 50.24C357.695 50.16 361.455 49.48 365.962 48.2C366.175 49.08 366.282 49.9467 366.282 50.8C366.282 52.96 365.562 54.5867 364.122 55.68C362.709 56.7733 360.882 57.32 358.642 57.32C357.122 57.32 355.629 57 354.162 56.36C353.949 57.56 353.575 59.52 353.042 62.24C354.029 62.4267 354.869 62.52 355.562 62.52C356.655 62.3067 357.855 62 359.162 61.6C359.295 62.0533 359.362 62.8 359.362 63.84C359.362 64.8533 358.949 65.6667 358.122 66.28C357.295 66.8933 356.362 67.2 355.322 67.2C354.309 67.2 353.269 67.08 352.202 66.84C351.909 68.52 351.762 70.1067 351.762 71.6H358.242C360.269 71.3067 362.309 70.7867 364.362 70.04C364.522 70.52 364.602 71.1733 364.602 72C364.602 73.5733 364.135 74.9733 363.202 76.2C362.295 77.4267 361.029 78.04 359.402 78.04C358.549 78.04 357.295 77.8667 355.642 77.52C354.015 77.2 352.802 77 352.002 76.92C350.722 77.6933 349.295 78.08 347.722 78.08Z"/>
</mask>
<path d="M35.32 69.36L33.28 65.16C36.1333 63.2667 38.7067 62.32 41 62.32C42.92 62.32 43.88 63.4 43.88 65.56C43.88 66.1733 43.5067 68.0533 42.76 71.2C42.04 74.32 41.68 76.7067 41.68 78.36C41.68 80.0133 42.04 81.24 42.76 82.04C41.2667 83.1333 39.7067 83.68 38.08 83.68C36.4533 83.68 35.2933 83.1467 34.6 82.08C33.9333 81.0133 33.6 79.4533 33.6 77.4C32.16 77.8267 30.6667 78.04 29.12 78.04C25.4933 78.04 22.56 76.92 20.32 74.68C18.1067 72.44 17 69.1333 17 64.76C17 62.8933 17.4 61 18.2 59.08C19 57.1333 20.1333 55.3333 21.6 53.68C23.0667 52.0267 24.9733 50.68 27.32 49.64C29.6933 48.5733 32.1333 48.04 34.64 48.04C37.1733 48.04 39.1467 48.5067 40.56 49.44C42 50.3733 42.72 51.6667 42.72 53.32C42.72 54.9733 42.1733 56.2667 41.08 57.2C40.0133 58.1067 38.7867 58.56 37.4 58.56C36.0133 58.56 34.76 58.2667 33.64 57.68C32.5467 57.0667 31.6667 56.2 31 55.08C29.56 55.7733 28.32 57.1333 27.28 59.16C26.24 61.1867 25.72 63.3067 25.72 65.52C25.72 67.7333 26.1467 69.4 27 70.52C27.88 71.6133 28.9733 72.16 30.28 72.16C32.1733 72.16 33.8533 71.2267 35.32 69.36Z" fill="#DDA044"/>
<path d="M70.0672 53.92L69.7472 63.44C69.7472 66.72 70.0139 69.48 70.5472 71.72C71.1072 73.96 72.1339 75.5067 73.6272 76.36C71.7872 77.5067 69.9205 78.08 68.0272 78.08C64.6939 78.08 62.6405 75.3867 61.8672 70H53.7072C53.2005 71.7333 52.9472 73.0667 52.9472 74C52.9472 74.9067 53.0539 75.64 53.2672 76.2C51.2939 77.4533 49.5339 78.08 47.9872 78.08C45.6139 78.08 44.4272 76.64 44.4272 73.76C44.4272 72.32 44.8672 70.5067 45.7472 68.32C46.6539 66.1333 47.8405 63.6267 49.3072 60.8C50.8005 57.9733 51.7472 56.1067 52.1472 55.2C51.8539 53.76 51.5205 52.3467 51.1472 50.96C52.5339 50 53.8672 49.28 55.1472 48.8C56.4539 48.2933 57.8539 48.04 59.3472 48.04C60.8672 48.04 61.9205 48.3733 62.5072 49.04C64.0272 48.3733 65.2805 48.04 66.2672 48.04C67.2539 48.04 67.9872 48.2 68.4672 48.52C68.9472 48.84 69.2939 49.3067 69.5072 49.92C69.8805 50.9867 70.0672 52.32 70.0672 53.92ZM62.0272 54.84H60.7472C58.3472 59.48 56.5605 63.1333 55.3872 65.8H61.5872C61.5872 62.8933 61.7339 59.24 62.0272 54.84Z" fill="#DDA044"/>
<path d="M107.048 78.08C105.314 78.08 104.074 77.5867 103.328 76.6C102.581 75.5867 102.208 74.1067 102.208 72.16C102.208 70.2133 102.834 65.7333 104.088 58.72H103.448C101.821 60.8533 100.474 63.4 99.4078 66.36C98.3411 69.32 97.6878 71.9867 97.4478 74.36C96.1411 75.5867 94.6345 76.2 92.9278 76.2C92.2345 76.2 91.6211 75.96 91.0878 75.48C90.5811 74.9733 90.0745 74.1067 89.5678 72.88C88.5811 70.4 87.8745 65.68 87.4478 58.72H86.8078C85.5011 64.4533 84.8478 68.4933 84.8478 70.84C84.8478 73.1867 85.2478 75 86.0478 76.28C84.4478 77.48 82.7811 78.08 81.0478 78.08C79.3145 78.08 78.0745 77.5867 77.3278 76.6C76.5811 75.5867 76.2078 74.0933 76.2078 72.12C76.2078 70.12 77.0478 64.48 78.7278 55.2L76.6078 50.92C79.6211 48.9733 82.3678 48 84.8478 48C85.9411 48 86.8611 48.12 87.6078 48.36C88.3811 48.5733 89.1145 49 89.8078 49.64C90.5278 50.28 91.1145 51.1733 91.5678 52.32C92.6078 54.9067 93.3545 58.68 93.8078 63.64H94.2878C95.6745 59.56 97.5945 56.0533 100.048 53.12C101.381 51.5467 102.968 50.3067 104.808 49.4C106.674 48.4933 108.688 48.04 110.848 48.04C112.901 48.04 113.928 49.28 113.928 51.76C113.928 52.5867 113.408 55.6667 112.368 61C111.354 66.3067 110.848 69.4667 110.848 70.48C110.848 73.0667 111.248 75 112.048 76.28C110.448 77.48 108.781 78.08 107.048 78.08Z" fill="#DDA044"/>
<path d="M122.693 78.08C120.96 78.08 119.72 77.5867 118.973 76.6C118.226 75.5867 117.853 74.0933 117.853 72.12C117.853 70.12 118.693 64.48 120.373 55.2L118.253 50.92C121.266 48.9733 124.013 48 126.493 48C128.546 48 129.573 49.2533 129.573 51.76C129.573 52.5867 129.053 55.6667 128.013 61C127 66.3067 126.493 69.4667 126.493 70.48C126.493 73.0667 126.893 75 127.693 76.28C126.093 77.48 124.426 78.08 122.693 78.08Z" fill="#DDA044"/>
<path d="M153.881 70.76L154.841 70.12C153.108 66.7867 152.241 63.1333 152.241 59.16C152.241 56.0667 153.001 53.44 154.521 51.28C156.068 49.12 158.241 48.04 161.041 48.04C162.508 48.04 163.748 48.2933 164.761 48.8C164.494 50.2933 164.014 52.8933 163.321 56.6C161.828 64.5733 161.081 69.1467 161.081 70.32C161.081 72.8533 161.508 74.7467 162.361 76C161.188 76.7733 160.108 77.3067 159.121 77.6C158.134 77.8933 156.854 78.04 155.281 78.04C153.734 78.04 152.321 77.7067 151.041 77.04C149.788 76.3733 148.748 75.4933 147.921 74.4C147.121 73.28 146.441 71.9067 145.881 70.28C144.894 67.4267 144.294 63.8 144.081 59.4H143.441C142.214 64.9467 141.601 68.8267 141.601 71.04C141.601 73.2533 142.001 75 142.801 76.28C141.201 77.48 139.534 78.08 137.801 78.08C136.068 78.08 134.828 77.5867 134.081 76.6C133.334 75.5867 132.961 74.0933 132.961 72.12C132.961 70.12 133.801 64.48 135.481 55.2L133.361 50.92C136.348 49 139.014 48.04 141.361 48.04C143.708 48.04 145.481 48.4533 146.681 49.28C147.881 50.08 148.721 51.2667 149.201 52.84C149.681 54.4133 150.028 56.08 150.241 57.84C150.481 59.5733 150.881 61.6667 151.441 64.12C152.028 66.5733 152.841 68.7867 153.881 70.76Z" fill="#DDA044"/>
<path d="M185.086 69.36L183.046 65.16C185.899 63.2667 188.472 62.32 190.766 62.32C192.686 62.32 193.646 63.4 193.646 65.56C193.646 66.1733 193.272 68.0533 192.526 71.2C191.806 74.32 191.446 76.7067 191.446 78.36C191.446 80.0133 191.806 81.24 192.526 82.04C191.032 83.1333 189.472 83.68 187.846 83.68C186.219 83.68 185.059 83.1467 184.366 82.08C183.699 81.0133 183.366 79.4533 183.366 77.4C181.926 77.8267 180.432 78.04 178.886 78.04C175.259 78.04 172.326 76.92 170.086 74.68C167.872 72.44 166.766 69.1333 166.766 64.76C166.766 62.8933 167.166 61 167.966 59.08C168.766 57.1333 169.899 55.3333 171.366 53.68C172.832 52.0267 174.739 50.68 177.086 49.64C179.459 48.5733 181.899 48.04 184.406 48.04C186.939 48.04 188.912 48.5067 190.326 49.44C191.766 50.3733 192.486 51.6667 192.486 53.32C192.486 54.9733 191.939 56.2667 190.846 57.2C189.779 58.1067 188.552 58.56 187.166 58.56C185.779 58.56 184.526 58.2667 183.406 57.68C182.312 57.0667 181.432 56.2 180.766 55.08C179.326 55.7733 178.086 57.1333 177.046 59.16C176.006 61.1867 175.486 63.3067 175.486 65.52C175.486 67.7333 175.912 69.4 176.766 70.52C177.646 71.6133 178.739 72.16 180.046 72.16C181.939 72.16 183.619 71.2267 185.086 69.36Z" fill="#DDA044"/>
<path d="M218.505 57.48C214.745 57.48 211.998 57.0667 210.265 56.24C208.558 55.4133 207.705 53.8667 207.705 51.6C207.705 50.8 207.838 49.6667 208.105 48.2C209.945 48.9733 212.132 49.6 214.665 50.08C217.198 50.5333 219.185 50.76 220.625 50.76C221.638 48.9733 223.038 48.08 224.825 48.08C225.998 48.08 226.905 48.4533 227.545 49.2C228.212 49.92 228.545 50.8533 228.545 52C228.545 53.12 228.105 54.1733 227.225 55.16L225.825 66.64C225.585 68.6933 225.052 70.5333 224.225 72.16C223.425 73.7867 222.465 75.0667 221.345 76C219.078 77.8933 216.745 78.84 214.345 78.84C211.945 78.84 210.025 78.3067 208.585 77.24C207.145 76.2 206.425 74.9333 206.425 73.44C206.425 71.92 206.865 70.7333 207.745 69.88C208.625 69 209.652 68.56 210.825 68.56C212.025 68.56 213.132 68.9733 214.145 69.8C215.158 70.6267 215.932 71.8667 216.465 73.52L217.465 72.72C216.745 70.72 216.385 69.12 216.385 67.92C216.385 67.2533 216.638 65.72 217.145 63.32C217.652 60.92 218.105 58.9733 218.505 57.48Z" fill="#DDA044"/>
<path d="M258.334 76.28C256.734 77.48 255.161 78.08 253.614 78.08C252.068 78.08 250.841 77.68 249.934 76.88C249.028 76.08 248.574 74.88 248.574 73.28C248.574 72.8267 248.588 72.48 248.614 72.24L248.214 72.12C245.574 76.0667 242.028 78.04 237.574 78.04C233.281 78.04 231.134 75.7733 231.134 71.24C231.134 69.72 231.348 67.7067 231.774 65.2C232.201 62.6667 232.561 60.5333 232.854 58.8C233.174 57.04 233.388 55.84 233.494 55.2L231.374 50.92C233.054 49.96 234.508 49.24 235.734 48.76C236.988 48.28 238.241 48.04 239.494 48.04C240.748 48.04 241.588 48.3733 242.014 49.04C242.468 49.68 242.694 50.4533 242.694 51.36C242.694 52.2667 242.241 55.1733 241.334 60.08C240.454 64.9867 240.014 67.8533 240.014 68.68C240.014 70.7867 240.734 71.84 242.174 71.84C243.241 71.84 244.454 71.16 245.814 69.8C247.174 68.44 248.281 66.5733 249.134 64.2C248.574 62.5733 248.294 60.8933 248.294 59.16C248.294 56.0667 249.054 53.44 250.574 51.28C252.121 49.12 254.294 48.04 257.094 48.04C258.641 48.04 259.881 48.2933 260.814 48.8C260.574 50.24 260.108 52.8533 259.414 56.64C257.894 64.6667 257.134 69.28 257.134 70.48C257.134 73.0667 257.534 75 258.334 76.28Z" fill="#DDA044"/>
<path d="M284.74 70.76L285.7 70.12C283.967 66.7867 283.1 63.1333 283.1 59.16C283.1 56.0667 283.86 53.44 285.38 51.28C286.927 49.12 289.1 48.04 291.9 48.04C293.367 48.04 294.607 48.2933 295.62 48.8C295.354 50.2933 294.874 52.8933 294.18 56.6C292.687 64.5733 291.94 69.1467 291.94 70.32C291.94 72.8533 292.367 74.7467 293.22 76C292.047 76.7733 290.967 77.3067 289.98 77.6C288.994 77.8933 287.714 78.04 286.14 78.04C284.594 78.04 283.18 77.7067 281.9 77.04C280.647 76.3733 279.607 75.4933 278.78 74.4C277.98 73.28 277.3 71.9067 276.74 70.28C275.754 67.4267 275.154 63.8 274.94 59.4H274.3C273.074 64.9467 272.46 68.8267 272.46 71.04C272.46 73.2533 272.86 75 273.66 76.28C272.06 77.48 270.394 78.08 268.66 78.08C266.927 78.08 265.687 77.5867 264.94 76.6C264.194 75.5867 263.82 74.0933 263.82 72.12C263.82 70.12 264.66 64.48 266.34 55.2L264.22 50.92C267.207 49 269.874 48.04 272.22 48.04C274.567 48.04 276.34 48.4533 277.54 49.28C278.74 50.08 279.58 51.2667 280.06 52.84C280.54 54.4133 280.887 56.08 281.1 57.84C281.34 59.5733 281.74 61.6667 282.3 64.12C282.887 66.5733 283.7 68.7867 284.74 70.76Z" fill="#DDA044"/>
<path d="M303.665 78.08C301.932 78.08 300.692 77.5867 299.945 76.6C299.198 75.5867 298.825 74.0933 298.825 72.12C298.825 70.12 299.665 64.48 301.345 55.2L299.225 50.92C302.238 48.9733 304.985 48 307.465 48C309.518 48 310.545 49.2533 310.545 51.76C310.545 52.5067 309.985 55.7867 308.865 61.6L310.745 60.04C314.638 56.7867 316.585 54.0133 316.585 51.72C316.585 51.0267 316.478 50.4 316.265 49.84C318.238 48.64 320.105 48.04 321.865 48.04C324.478 48.04 325.785 49.3733 325.785 52.04C325.785 55.0267 323.132 58.0533 317.825 61.12C320.305 69.0667 322.985 73.9733 325.865 75.84C325.278 76.4267 324.398 76.9333 323.225 77.36C322.078 77.8133 321.052 78.04 320.145 78.04C318.332 78.04 316.878 77.5733 315.785 76.64C314.692 75.7067 313.705 73.9867 312.825 71.48L310.505 64.96L308.025 66.28C307.652 68.4667 307.465 69.8667 307.465 70.48C307.465 73.0667 307.865 75 308.665 76.28C307.065 77.48 305.398 78.08 303.665 78.08Z" fill="#DDA044"/>
<path d="M332.654 78.08C330.921 78.08 329.681 77.5867 328.934 76.6C328.187 75.5867 327.814 74.0933 327.814 72.12C327.814 70.12 328.654 64.48 330.334 55.2L328.214 50.92C331.227 48.9733 333.974 48 336.454 48C338.507 48 339.534 49.2533 339.534 51.76C339.534 52.5867 339.014 55.6667 337.974 61C336.961 66.3067 336.454 69.4667 336.454 70.48C336.454 73.0667 336.854 75 337.654 76.28C336.054 77.48 334.387 78.08 332.654 78.08Z" fill="#DDA044"/>
<path d="M347.722 78.08C346.149 78.08 344.989 77.5867 344.242 76.6C343.495 75.5867 343.122 74.0933 343.122 72.12C343.122 70.12 343.962 64.48 345.642 55.2L343.522 50.92C346.535 48.9733 349.282 48 351.762 48C353.335 48 354.309 48.7467 354.682 50.24C357.695 50.16 361.455 49.48 365.962 48.2C366.175 49.08 366.282 49.9467 366.282 50.8C366.282 52.96 365.562 54.5867 364.122 55.68C362.709 56.7733 360.882 57.32 358.642 57.32C357.122 57.32 355.629 57 354.162 56.36C353.949 57.56 353.575 59.52 353.042 62.24C354.029 62.4267 354.869 62.52 355.562 62.52C356.655 62.3067 357.855 62 359.162 61.6C359.295 62.0533 359.362 62.8 359.362 63.84C359.362 64.8533 358.949 65.6667 358.122 66.28C357.295 66.8933 356.362 67.2 355.322 67.2C354.309 67.2 353.269 67.08 352.202 66.84C351.909 68.52 351.762 70.1067 351.762 71.6H358.242C360.269 71.3067 362.309 70.7867 364.362 70.04C364.522 70.52 364.602 71.1733 364.602 72C364.602 73.5733 364.135 74.9733 363.202 76.2C362.295 77.4267 361.029 78.04 359.402 78.04C358.549 78.04 357.295 77.8667 355.642 77.52C354.015 77.2 352.802 77 352.002 76.92C350.722 77.6933 349.295 78.08 347.722 78.08Z" fill="#DDA044"/>
<path d="M35.32 69.36L33.28 65.16C36.1333 63.2667 38.7067 62.32 41 62.32C42.92 62.32 43.88 63.4 43.88 65.56C43.88 66.1733 43.5067 68.0533 42.76 71.2C42.04 74.32 41.68 76.7067 41.68 78.36C41.68 80.0133 42.04 81.24 42.76 82.04C41.2667 83.1333 39.7067 83.68 38.08 83.68C36.4533 83.68 35.2933 83.1467 34.6 82.08C33.9333 81.0133 33.6 79.4533 33.6 77.4C32.16 77.8267 30.6667 78.04 29.12 78.04C25.4933 78.04 22.56 76.92 20.32 74.68C18.1067 72.44 17 69.1333 17 64.76C17 62.8933 17.4 61 18.2 59.08C19 57.1333 20.1333 55.3333 21.6 53.68C23.0667 52.0267 24.9733 50.68 27.32 49.64C29.6933 48.5733 32.1333 48.04 34.64 48.04C37.1733 48.04 39.1467 48.5067 40.56 49.44C42 50.3733 42.72 51.6667 42.72 53.32C42.72 54.9733 42.1733 56.2667 41.08 57.2C40.0133 58.1067 38.7867 58.56 37.4 58.56C36.0133 58.56 34.76 58.2667 33.64 57.68C32.5467 57.0667 31.6667 56.2 31 55.08C29.56 55.7733 28.32 57.1333 27.28 59.16C26.24 61.1867 25.72 63.3067 25.72 65.52C25.72 67.7333 26.1467 69.4 27 70.52C27.88 71.6133 28.9733 72.16 30.28 72.16C32.1733 72.16 33.8533 71.2267 35.32 69.36Z" stroke="#B71C1C" stroke-width="12" mask="url(#path-1-outside-1_9_2)"/>
<path d="M70.0672 53.92L69.7472 63.44C69.7472 66.72 70.0139 69.48 70.5472 71.72C71.1072 73.96 72.1339 75.5067 73.6272 76.36C71.7872 77.5067 69.9205 78.08 68.0272 78.08C64.6939 78.08 62.6405 75.3867 61.8672 70H53.7072C53.2005 71.7333 52.9472 73.0667 52.9472 74C52.9472 74.9067 53.0539 75.64 53.2672 76.2C51.2939 77.4533 49.5339 78.08 47.9872 78.08C45.6139 78.08 44.4272 76.64 44.4272 73.76C44.4272 72.32 44.8672 70.5067 45.7472 68.32C46.6539 66.1333 47.8405 63.6267 49.3072 60.8C50.8005 57.9733 51.7472 56.1067 52.1472 55.2C51.8539 53.76 51.5205 52.3467 51.1472 50.96C52.5339 50 53.8672 49.28 55.1472 48.8C56.4539 48.2933 57.8539 48.04 59.3472 48.04C60.8672 48.04 61.9205 48.3733 62.5072 49.04C64.0272 48.3733 65.2805 48.04 66.2672 48.04C67.2539 48.04 67.9872 48.2 68.4672 48.52C68.9472 48.84 69.2939 49.3067 69.5072 49.92C69.8805 50.9867 70.0672 52.32 70.0672 53.92ZM62.0272 54.84H60.7472C58.3472 59.48 56.5605 63.1333 55.3872 65.8H61.5872C61.5872 62.8933 61.7339 59.24 62.0272 54.84Z" stroke="#B71C1C" stroke-width="12" mask="url(#path-1-outside-1_9_2)"/>
<path d="M107.048 78.08C105.314 78.08 104.074 77.5867 103.328 76.6C102.581 75.5867 102.208 74.1067 102.208 72.16C102.208 70.2133 102.834 65.7333 104.088 58.72H103.448C101.821 60.8533 100.474 63.4 99.4078 66.36C98.3411 69.32 97.6878 71.9867 97.4478 74.36C96.1411 75.5867 94.6345 76.2 92.9278 76.2C92.2345 76.2 91.6211 75.96 91.0878 75.48C90.5811 74.9733 90.0745 74.1067 89.5678 72.88C88.5811 70.4 87.8745 65.68 87.4478 58.72H86.8078C85.5011 64.4533 84.8478 68.4933 84.8478 70.84C84.8478 73.1867 85.2478 75 86.0478 76.28C84.4478 77.48 82.7811 78.08 81.0478 78.08C79.3145 78.08 78.0745 77.5867 77.3278 76.6C76.5811 75.5867 76.2078 74.0933 76.2078 72.12C76.2078 70.12 77.0478 64.48 78.7278 55.2L76.6078 50.92C79.6211 48.9733 82.3678 48 84.8478 48C85.9411 48 86.8611 48.12 87.6078 48.36C88.3811 48.5733 89.1145 49 89.8078 49.64C90.5278 50.28 91.1145 51.1733 91.5678 52.32C92.6078 54.9067 93.3545 58.68 93.8078 63.64H94.2878C95.6745 59.56 97.5945 56.0533 100.048 53.12C101.381 51.5467 102.968 50.3067 104.808 49.4C106.674 48.4933 108.688 48.04 110.848 48.04C112.901 48.04 113.928 49.28 113.928 51.76C113.928 52.5867 113.408 55.6667 112.368 61C111.354 66.3067 110.848 69.4667 110.848 70.48C110.848 73.0667 111.248 75 112.048 76.28C110.448 77.48 108.781 78.08 107.048 78.08Z" stroke="#B71C1C" stroke-width="12" mask="url(#path-1-outside-1_9_2)"/>
<path d="M122.693 78.08C120.96 78.08 119.72 77.5867 118.973 76.6C118.226 75.5867 117.853 74.0933 117.853 72.12C117.853 70.12 118.693 64.48 120.373 55.2L118.253 50.92C121.266 48.9733 124.013 48 126.493 48C128.546 48 129.573 49.2533 129.573 51.76C129.573 52.5867 129.053 55.6667 128.013 61C127 66.3067 126.493 69.4667 126.493 70.48C126.493 73.0667 126.893 75 127.693 76.28C126.093 77.48 124.426 78.08 122.693 78.08Z" stroke="#B71C1C" stroke-width="12" mask="url(#path-1-outside-1_9_2)"/>
<path d="M153.881 70.76L154.841 70.12C153.108 66.7867 152.241 63.1333 152.241 59.16C152.241 56.0667 153.001 53.44 154.521 51.28C156.068 49.12 158.241 48.04 161.041 48.04C162.508 48.04 163.748 48.2933 164.761 48.8C164.494 50.2933 164.014 52.8933 163.321 56.6C161.828 64.5733 161.081 69.1467 161.081 70.32C161.081 72.8533 161.508 74.7467 162.361 76C161.188 76.7733 160.108 77.3067 159.121 77.6C158.134 77.8933 156.854 78.04 155.281 78.04C153.734 78.04 152.321 77.7067 151.041 77.04C149.788 76.3733 148.748 75.4933 147.921 74.4C147.121 73.28 146.441 71.9067 145.881 70.28C144.894 67.4267 144.294 63.8 144.081 59.4H143.441C142.214 64.9467 141.601 68.8267 141.601 71.04C141.601 73.2533 142.001 75 142.801 76.28C141.201 77.48 139.534 78.08 137.801 78.08C136.068 78.08 134.828 77.5867 134.081 76.6C133.334 75.5867 132.961 74.0933 132.961 72.12C132.961 70.12 133.801 64.48 135.481 55.2L133.361 50.92C136.348 49 139.014 48.04 141.361 48.04C143.708 48.04 145.481 48.4533 146.681 49.28C147.881 50.08 148.721 51.2667 149.201 52.84C149.681 54.4133 150.028 56.08 150.241 57.84C150.481 59.5733 150.881 61.6667 151.441 64.12C152.028 66.5733 152.841 68.7867 153.881 70.76Z" stroke="#B71C1C" stroke-width="12" mask="url(#path-1-outside-1_9_2)"/>
<path d="M185.086 69.36L183.046 65.16C185.899 63.2667 188.472 62.32 190.766 62.32C192.686 62.32 193.646 63.4 193.646 65.56C193.646 66.1733 193.272 68.0533 192.526 71.2C191.806 74.32 191.446 76.7067 191.446 78.36C191.446 80.0133 191.806 81.24 192.526 82.04C191.032 83.1333 189.472 83.68 187.846 83.68C186.219 83.68 185.059 83.1467 184.366 82.08C183.699 81.0133 183.366 79.4533 183.366 77.4C181.926 77.8267 180.432 78.04 178.886 78.04C175.259 78.04 172.326 76.92 170.086 74.68C167.872 72.44 166.766 69.1333 166.766 64.76C166.766 62.8933 167.166 61 167.966 59.08C168.766 57.1333 169.899 55.3333 171.366 53.68C172.832 52.0267 174.739 50.68 177.086 49.64C179.459 48.5733 181.899 48.04 184.406 48.04C186.939 48.04 188.912 48.5067 190.326 49.44C191.766 50.3733 192.486 51.6667 192.486 53.32C192.486 54.9733 191.939 56.2667 190.846 57.2C189.779 58.1067 188.552 58.56 187.166 58.56C185.779 58.56 184.526 58.2667 183.406 57.68C182.312 57.0667 181.432 56.2 180.766 55.08C179.326 55.7733 178.086 57.1333 177.046 59.16C176.006 61.1867 175.486 63.3067 175.486 65.52C175.486 67.7333 175.912 69.4 176.766 70.52C177.646 71.6133 178.739 72.16 180.046 72.16C181.939 72.16 183.619 71.2267 185.086 69.36Z" stroke="#B71C1C" stroke-width="12" mask="url(#path-1-outside-1_9_2)"/>
<path d="M218.505 57.48C214.745 57.48 211.998 57.0667 210.265 56.24C208.558 55.4133 207.705 53.8667 207.705 51.6C207.705 50.8 207.838 49.6667 208.105 48.2C209.945 48.9733 212.132 49.6 214.665 50.08C217.198 50.5333 219.185 50.76 220.625 50.76C221.638 48.9733 223.038 48.08 224.825 48.08C225.998 48.08 226.905 48.4533 227.545 49.2C228.212 49.92 228.545 50.8533 228.545 52C228.545 53.12 228.105 54.1733 227.225 55.16L225.825 66.64C225.585 68.6933 225.052 70.5333 224.225 72.16C223.425 73.7867 222.465 75.0667 221.345 76C219.078 77.8933 216.745 78.84 214.345 78.84C211.945 78.84 210.025 78.3067 208.585 77.24C207.145 76.2 206.425 74.9333 206.425 73.44C206.425 71.92 206.865 70.7333 207.745 69.88C208.625 69 209.652 68.56 210.825 68.56C212.025 68.56 213.132 68.9733 214.145 69.8C215.158 70.6267 215.932 71.8667 216.465 73.52L217.465 72.72C216.745 70.72 216.385 69.12 216.385 67.92C216.385 67.2533 216.638 65.72 217.145 63.32C217.652 60.92 218.105 58.9733 218.505 57.48Z" stroke="#B71C1C" stroke-width="12" mask="url(#path-1-outside-1_9_2)"/>
<path d="M258.334 76.28C256.734 77.48 255.161 78.08 253.614 78.08C252.068 78.08 250.841 77.68 249.934 76.88C249.028 76.08 248.574 74.88 248.574 73.28C248.574 72.8267 248.588 72.48 248.614 72.24L248.214 72.12C245.574 76.0667 242.028 78.04 237.574 78.04C233.281 78.04 231.134 75.7733 231.134 71.24C231.134 69.72 231.348 67.7067 231.774 65.2C232.201 62.6667 232.561 60.5333 232.854 58.8C233.174 57.04 233.388 55.84 233.494 55.2L231.374 50.92C233.054 49.96 234.508 49.24 235.734 48.76C236.988 48.28 238.241 48.04 239.494 48.04C240.748 48.04 241.588 48.3733 242.014 49.04C242.468 49.68 242.694 50.4533 242.694 51.36C242.694 52.2667 242.241 55.1733 241.334 60.08C240.454 64.9867 240.014 67.8533 240.014 68.68C240.014 70.7867 240.734 71.84 242.174 71.84C243.241 71.84 244.454 71.16 245.814 69.8C247.174 68.44 248.281 66.5733 249.134 64.2C248.574 62.5733 248.294 60.8933 248.294 59.16C248.294 56.0667 249.054 53.44 250.574 51.28C252.121 49.12 254.294 48.04 257.094 48.04C258.641 48.04 259.881 48.2933 260.814 48.8C260.574 50.24 260.108 52.8533 259.414 56.64C257.894 64.6667 257.134 69.28 257.134 70.48C257.134 73.0667 257.534 75 258.334 76.28Z" stroke="#B71C1C" stroke-width="12" mask="url(#path-1-outside-1_9_2)"/>
<path d="M284.74 70.76L285.7 70.12C283.967 66.7867 283.1 63.1333 283.1 59.16C283.1 56.0667 283.86 53.44 285.38 51.28C286.927 49.12 289.1 48.04 291.9 48.04C293.367 48.04 294.607 48.2933 295.62 48.8C295.354 50.2933 294.874 52.8933 294.18 56.6C292.687 64.5733 291.94 69.1467 291.94 70.32C291.94 72.8533 292.367 74.7467 293.22 76C292.047 76.7733 290.967 77.3067 289.98 77.6C288.994 77.8933 287.714 78.04 286.14 78.04C284.594 78.04 283.18 77.7067 281.9 77.04C280.647 76.3733 279.607 75.4933 278.78 74.4C277.98 73.28 277.3 71.9067 276.74 70.28C275.754 67.4267 275.154 63.8 274.94 59.4H274.3C273.074 64.9467 272.46 68.8267 272.46 71.04C272.46 73.2533 272.86 75 273.66 76.28C272.06 77.48 270.394 78.08 268.66 78.08C266.927 78.08 265.687 77.5867 264.94 76.6C264.194 75.5867 263.82 74.0933 263.82 72.12C263.82 70.12 264.66 64.48 266.34 55.2L264.22 50.92C267.207 49 269.874 48.04 272.22 48.04C274.567 48.04 276.34 48.4533 277.54 49.28C278.74 50.08 279.58 51.2667 280.06 52.84C280.54 54.4133 280.887 56.08 281.1 57.84C281.34 59.5733 281.74 61.6667 282.3 64.12C282.887 66.5733 283.7 68.7867 284.74 70.76Z" stroke="#B71C1C" stroke-width="12" mask="url(#path-1-outside-1_9_2)"/>
<path d="M303.665 78.08C301.932 78.08 300.692 77.5867 299.945 76.6C299.198 75.5867 298.825 74.0933 298.825 72.12C298.825 70.12 299.665 64.48 301.345 55.2L299.225 50.92C302.238 48.9733 304.985 48 307.465 48C309.518 48 310.545 49.2533 310.545 51.76C310.545 52.5067 309.985 55.7867 308.865 61.6L310.745 60.04C314.638 56.7867 316.585 54.0133 316.585 51.72C316.585 51.0267 316.478 50.4 316.265 49.84C318.238 48.64 320.105 48.04 321.865 48.04C324.478 48.04 325.785 49.3733 325.785 52.04C325.785 55.0267 323.132 58.0533 317.825 61.12C320.305 69.0667 322.985 73.9733 325.865 75.84C325.278 76.4267 324.398 76.9333 323.225 77.36C322.078 77.8133 321.052 78.04 320.145 78.04C318.332 78.04 316.878 77.5733 315.785 76.64C314.692 75.7067 313.705 73.9867 312.825 71.48L310.505 64.96L308.025 66.28C307.652 68.4667 307.465 69.8667 307.465 70.48C307.465 73.0667 307.865 75 308.665 76.28C307.065 77.48 305.398 78.08 303.665 78.08Z" stroke="#B71C1C" stroke-width="12" mask="url(#path-1-outside-1_9_2)"/>
<path d="M332.654 78.08C330.921 78.08 329.681 77.5867 328.934 76.6C328.187 75.5867 327.814 74.0933 327.814 72.12C327.814 70.12 328.654 64.48 330.334 55.2L328.214 50.92C331.227 48.9733 333.974 48 336.454 48C338.507 48 339.534 49.2533 339.534 51.76C339.534 52.5867 339.014 55.6667 337.974 61C336.961 66.3067 336.454 69.4667 336.454 70.48C336.454 73.0667 336.854 75 337.654 76.28C336.054 77.48 334.387 78.08 332.654 78.08Z" stroke="#B71C1C" stroke-width="12" mask="url(#path-1-outside-1_9_2)"/>
<path d="M347.722 78.08C346.149 78.08 344.989 77.5867 344.242 76.6C343.495 75.5867 343.122 74.0933 343.122 72.12C343.122 70.12 343.962 64.48 345.642 55.2L343.522 50.92C346.535 48.9733 349.282 48 351.762 48C353.335 48 354.309 48.7467 354.682 50.24C357.695 50.16 361.455 49.48 365.962 48.2C366.175 49.08 366.282 49.9467 366.282 50.8C366.282 52.96 365.562 54.5867 364.122 55.68C362.709 56.7733 360.882 57.32 358.642 57.32C357.122 57.32 355.629 57 354.162 56.36C353.949 57.56 353.575 59.52 353.042 62.24C354.029 62.4267 354.869 62.52 355.562 62.52C356.655 62.3067 357.855 62 359.162 61.6C359.295 62.0533 359.362 62.8 359.362 63.84C359.362 64.8533 358.949 65.6667 358.122 66.28C357.295 66.8933 356.362 67.2 355.322 67.2C354.309 67.2 353.269 67.08 352.202 66.84C351.909 68.52 351.762 70.1067 351.762 71.6H358.242C360.269 71.3067 362.309 70.7867 364.362 70.04C364.522 70.52 364.602 71.1733 364.602 72C364.602 73.5733 364.135 74.9733 363.202 76.2C362.295 77.4267 361.029 78.04 359.402 78.04C358.549 78.04 357.295 77.8667 355.642 77.52C354.015 77.2 352.802 77 352.002 76.92C350.722 77.6933 349.295 78.08 347.722 78.08Z" stroke="#B71C1C" stroke-width="12" mask="url(#path-1-outside-1_9_2)"/>
</g>
<defs>
<filter id="filter0_d_9_2" x="7" y="39.7725" width="369.282" height="57.9075" filterUnits="userSpaceOnUse" color-interpolation-filters="sRGB">
<feFlood flood-opacity="0" result="BackgroundImageFix"/>
<feColorMatrix in="SourceAlpha" type="matrix" values="0 0 0 0 0 0 0 0 0 0 0 0 0 0 0 0 0 0 127 0" result="hardAlpha"/>
<feOffset dy="4"/>
<feGaussianBlur stdDeviation="2"/>
<feComposite in2="hardAlpha" operator="out"/>
<feColorMatrix type="matrix" values="0 0 0 0 0 0 0 0 0 0 0 0 0 0 0 0 0 0 0.25 0"/>
<feBlend mode="normal" in2="BackgroundImageFix" result="effect1_dropShadow_9_2"/>
<feBlend mode="normal" in="SourceGraphic" in2="effect1_dropShadow_9_2" result="shape"/>
</filter>
</defs>
</svg>
